<mxfile host="Electron" modified="2024-05-24T01:13:04.982Z" agent="Mozilla/5.0 (Windows NT 10.0; Win64; x64) AppleWebKit/537.36 (KHTML, like Gecko) draw.io/24.4.0 Chrome/120.0.6099.109 Electron/28.1.0 Safari/537.36" etag="amshPfZXi_DLW0Vq_kI3" version="24.4.0" type="device">
  <diagram id="C5RBs43oDa-KdzZeNtuy" name="Page-1">
    <mxGraphModel dx="2393" dy="1353" grid="1" gridSize="10" guides="1" tooltips="1" connect="1" arrows="1" fold="1" page="1" pageScale="1" pageWidth="827" pageHeight="1169" math="0" shadow="0">
      <root>
        <mxCell id="WIyWlLk6GJQsqaUBKTNV-0" />
        <mxCell id="WIyWlLk6GJQsqaUBKTNV-1" parent="WIyWlLk6GJQsqaUBKTNV-0" />
        <mxCell id="_uNYWWRS_P6XX7t4Yp4K-17" style="edgeStyle=orthogonalEdgeStyle;rounded=0;orthogonalLoop=1;jettySize=auto;html=1;entryX=0;entryY=0.5;entryDx=0;entryDy=0;" edge="1" parent="WIyWlLk6GJQsqaUBKTNV-1" source="WIyWlLk6GJQsqaUBKTNV-7" target="_uNYWWRS_P6XX7t4Yp4K-5">
          <mxGeometry relative="1" as="geometry" />
        </mxCell>
        <mxCell id="WIyWlLk6GJQsqaUBKTNV-7" value="Отправитель" style="rounded=1;whiteSpace=wrap;html=1;fontSize=12;glass=0;strokeWidth=1;shadow=0;" parent="WIyWlLk6GJQsqaUBKTNV-1" vertex="1">
          <mxGeometry x="115" y="355" width="120" height="40" as="geometry" />
        </mxCell>
        <mxCell id="_uNYWWRS_P6XX7t4Yp4K-0" value="База данных маршруты&lt;span style=&quot;color: rgba(0, 0, 0, 0); font-family: monospace; font-size: 0px; text-align: start; text-wrap: nowrap;&quot;&gt;%3CmxGraphModel%3E%3Croot%3E%3CmxCell%20id%3D%220%22%2F%3E%3CmxCell%20id%3D%221%22%20parent%3D%220%22%2F%3E%3CmxCell%20id%3D%222%22%20value%3D%22%D0%9F%D0%BE%D1%82%D0%BE%D0%BA%D0%B8%20%D0%B4%D0%B0%D0%BD%D0%BD%D1%8B%D1%85%26lt%3Bdiv%26gt%3B%D0%94%D0%B0%D0%BD%D0%BD%D1%8B%D0%B5%20%D0%BE%D1%82%D0%BF%D1%80%D0%B0%D0%B2%D0%B8%D1%82%D0%B5%D0%BB%D1%8F%26lt%3B%2Fdiv%26gt%3B%22%20style%3D%22rounded%3D0%3BwhiteSpace%3Dwrap%3Bhtml%3D1%3B%22%20vertex%3D%221%22%20parent%3D%221%22%3E%3CmxGeometry%20x%3D%22490%22%20y%3D%22110%22%20width%3D%22120%22%20height%3D%22110%22%20as%3D%22geometry%22%2F%3E%3C%2FmxCell%3E%3C%2Froot%3E%3C%2FmxGraphModel%3E&lt;/span&gt;" style="shape=process;whiteSpace=wrap;html=1;backgroundOutline=1;" vertex="1" parent="WIyWlLk6GJQsqaUBKTNV-1">
          <mxGeometry x="985" y="555" width="120" height="60" as="geometry" />
        </mxCell>
        <mxCell id="_uNYWWRS_P6XX7t4Yp4K-19" style="edgeStyle=orthogonalEdgeStyle;rounded=0;orthogonalLoop=1;jettySize=auto;html=1;entryX=0;entryY=0.5;entryDx=0;entryDy=0;" edge="1" parent="WIyWlLk6GJQsqaUBKTNV-1" source="_uNYWWRS_P6XX7t4Yp4K-3" target="_uNYWWRS_P6XX7t4Yp4K-12">
          <mxGeometry relative="1" as="geometry" />
        </mxCell>
        <mxCell id="_uNYWWRS_P6XX7t4Yp4K-3" value="Обработка заявки&lt;span style=&quot;color: rgba(0, 0, 0, 0); font-family: monospace; font-size: 0px; text-align: start; text-wrap: nowrap;&quot;&gt;%3CmxGraphModel%3E%3Croot%3E%3CmxCell%20id%3D%220%22%2F%3E%3CmxCell%20id%3D%221%22%20parent%3D%220%22%2F%3E%3CmxCell%20id%3D%222%22%20value%3D%22%D0%91%D0%B0%D0%B7%D0%B0%20%D0%B4%D0%B0%D0%BD%D0%BD%D1%8B%D1%85%20%D0%BC%D0%B0%D1%80%D1%88%D1%80%D1%83%D1%82%D1%8B%26lt%3Bspan%20style%3D%26quot%3Bcolor%3A%20rgba(0%2C%200%2C%200%2C%200)%3B%20font-family%3A%20monospace%3B%20font-size%3A%200px%3B%20text-align%3A%20start%3B%20text-wrap%3A%20nowrap%3B%26quot%3B%26gt%3B%253CmxGraphModel%253E%253Croot%253E%253CmxCell%2520id%253D%25220%2522%252F%253E%253CmxCell%2520id%253D%25221%2522%2520parent%253D%25220%2522%252F%253E%253CmxCell%2520id%253D%25222%2522%2520value%253D%2522%25D0%259F%25D0%25BE%25D1%2582%25D0%25BE%25D0%25BA%25D0%25B8%2520%25D0%25B4%25D0%25B0%25D0%25BD%25D0%25BD%25D1%258B%25D1%2585%2526lt%253Bdiv%2526gt%253B%25D0%2594%25D0%25B0%25D0%25BD%25D0%25BD%25D1%258B%25D0%25B5%2520%25D0%25BE%25D1%2582%25D0%25BF%25D1%2580%25D0%25B0%25D0%25B2%25D0%25B8%25D1%2582%25D0%25B5%25D0%25BB%25D1%258F%2526lt%253B%252Fdiv%2526gt%253B%2522%2520style%253D%2522rounded%253D0%253BwhiteSpace%253Dwrap%253Bhtml%253D1%253B%2522%2520vertex%253D%25221%2522%2520parent%253D%25221%2522%253E%253CmxGeometry%2520x%253D%2522490%2522%2520y%253D%2522110%2522%2520width%253D%2522120%2522%2520height%253D%2522110%2522%2520as%253D%2522geometry%2522%252F%253E%253C%252FmxCell%253E%253C%252Froot%253E%253C%252FmxGraphModel%253E%26lt%3B%2Fspan%26gt%3B%22%20style%3D%22shape%3Dprocess%3BwhiteSpace%3Dwrap%3Bhtml%3D1%3BbackgroundOutline%3D1%3B%22%20vertex%3D%221%22%20parent%3D%221%22%3E%3CmxGeometry%20x%3D%22310%22%20y%3D%22330%22%20width%3D%22120%22%20height%3D%2260%22%20as%3D%22geometry%22%2F%3E%3C%2FmxCell%3E%3C%2Froot%3E%3C%2FmxGraphModel%3E&lt;/span&gt;" style="ellipse;whiteSpace=wrap;html=1;" vertex="1" parent="WIyWlLk6GJQsqaUBKTNV-1">
          <mxGeometry x="515" y="355" width="170" height="40" as="geometry" />
        </mxCell>
        <mxCell id="_uNYWWRS_P6XX7t4Yp4K-18" style="edgeStyle=orthogonalEdgeStyle;rounded=0;orthogonalLoop=1;jettySize=auto;html=1;entryX=0;entryY=0.5;entryDx=0;entryDy=0;" edge="1" parent="WIyWlLk6GJQsqaUBKTNV-1" source="_uNYWWRS_P6XX7t4Yp4K-5" target="_uNYWWRS_P6XX7t4Yp4K-3">
          <mxGeometry relative="1" as="geometry" />
        </mxCell>
        <mxCell id="_uNYWWRS_P6XX7t4Yp4K-5" value="Потоки данных&lt;div&gt;Данные отправителя&lt;/div&gt;" style="rounded=0;whiteSpace=wrap;html=1;" vertex="1" parent="WIyWlLk6GJQsqaUBKTNV-1">
          <mxGeometry x="325" y="320" width="120" height="110" as="geometry" />
        </mxCell>
        <mxCell id="_uNYWWRS_P6XX7t4Yp4K-6" value="Получатель" style="rounded=1;whiteSpace=wrap;html=1;fontSize=12;glass=0;strokeWidth=1;shadow=0;" vertex="1" parent="WIyWlLk6GJQsqaUBKTNV-1">
          <mxGeometry x="565" y="740" width="120" height="40" as="geometry" />
        </mxCell>
        <mxCell id="_uNYWWRS_P6XX7t4Yp4K-26" style="edgeStyle=orthogonalEdgeStyle;rounded=0;orthogonalLoop=1;jettySize=auto;html=1;entryX=1;entryY=0.5;entryDx=0;entryDy=0;" edge="1" parent="WIyWlLk6GJQsqaUBKTNV-1" source="_uNYWWRS_P6XX7t4Yp4K-7" target="_uNYWWRS_P6XX7t4Yp4K-10">
          <mxGeometry relative="1" as="geometry" />
        </mxCell>
        <mxCell id="_uNYWWRS_P6XX7t4Yp4K-7" value="Судно" style="rounded=1;whiteSpace=wrap;html=1;fontSize=12;glass=0;strokeWidth=1;shadow=0;" vertex="1" parent="WIyWlLk6GJQsqaUBKTNV-1">
          <mxGeometry x="565" y="565" width="120" height="40" as="geometry" />
        </mxCell>
        <mxCell id="_uNYWWRS_P6XX7t4Yp4K-30" style="edgeStyle=orthogonalEdgeStyle;rounded=0;orthogonalLoop=1;jettySize=auto;html=1;entryX=0;entryY=0.5;entryDx=0;entryDy=0;" edge="1" parent="WIyWlLk6GJQsqaUBKTNV-1" source="_uNYWWRS_P6XX7t4Yp4K-8" target="_uNYWWRS_P6XX7t4Yp4K-6">
          <mxGeometry relative="1" as="geometry" />
        </mxCell>
        <mxCell id="_uNYWWRS_P6XX7t4Yp4K-8" value="Потоки данных&lt;div&gt;Данные получателя&lt;/div&gt;" style="rounded=0;whiteSpace=wrap;html=1;" vertex="1" parent="WIyWlLk6GJQsqaUBKTNV-1">
          <mxGeometry x="375" y="705" width="120" height="110" as="geometry" />
        </mxCell>
        <mxCell id="_uNYWWRS_P6XX7t4Yp4K-23" style="edgeStyle=orthogonalEdgeStyle;rounded=0;orthogonalLoop=1;jettySize=auto;html=1;entryX=0.5;entryY=0;entryDx=0;entryDy=0;" edge="1" parent="WIyWlLk6GJQsqaUBKTNV-1" source="_uNYWWRS_P6XX7t4Yp4K-9" target="_uNYWWRS_P6XX7t4Yp4K-16">
          <mxGeometry relative="1" as="geometry" />
        </mxCell>
        <mxCell id="_uNYWWRS_P6XX7t4Yp4K-9" value="Потоки данных&lt;div&gt;Данные партии груза&lt;/div&gt;" style="rounded=0;whiteSpace=wrap;html=1;" vertex="1" parent="WIyWlLk6GJQsqaUBKTNV-1">
          <mxGeometry x="775" y="430" width="120" height="110" as="geometry" />
        </mxCell>
        <mxCell id="_uNYWWRS_P6XX7t4Yp4K-27" style="edgeStyle=orthogonalEdgeStyle;rounded=0;orthogonalLoop=1;jettySize=auto;html=1;entryX=1;entryY=0.5;entryDx=0;entryDy=0;" edge="1" parent="WIyWlLk6GJQsqaUBKTNV-1" source="_uNYWWRS_P6XX7t4Yp4K-10" target="_uNYWWRS_P6XX7t4Yp4K-14">
          <mxGeometry relative="1" as="geometry">
            <mxPoint x="285" y="585" as="targetPoint" />
          </mxGeometry>
        </mxCell>
        <mxCell id="_uNYWWRS_P6XX7t4Yp4K-10" value="Потоки данных&lt;div&gt;Данные судна&lt;/div&gt;" style="rounded=0;whiteSpace=wrap;html=1;" vertex="1" parent="WIyWlLk6GJQsqaUBKTNV-1">
          <mxGeometry x="375" y="530" width="120" height="110" as="geometry" />
        </mxCell>
        <mxCell id="_uNYWWRS_P6XX7t4Yp4K-11" value="База данных грузы&lt;span style=&quot;color: rgba(0, 0, 0, 0); font-family: monospace; font-size: 0px; text-align: start; text-wrap: nowrap;&quot;&gt;%3CmxGraphModel%3E%3Croot%3E%3CmxCell%20id%3D%220%22%2F%3E%3CmxCell%20id%3D%221%22%20parent%3D%220%22%2F%3E%3CmxCell%20id%3D%222%22%20value%3D%22%D0%9F%D0%BE%D1%82%D0%BE%D0%BA%D0%B8%20%D0%B4%D0%B0%D0%BD%D0%BD%D1%8B%D1%85%26lt%3Bdiv%26gt%3B%D0%94%D0%B0%D0%BD%D0%BD%D1%8B%D0%B5%20%D0%BE%D1%82%D0%BF%D1%80%D0%B0%D0%B2%D0%B8%D1%82%D0%B5%D0%BB%D1%8F%26lt%3B%2Fdiv%26gt%3B%22%20style%3D%22rounded%3D0%3BwhiteSpace%3Dwrap%3Bhtml%3D1%3B%22%20vertex%3D%221%22%20parent%3D%221%22%3E%3CmxGeometry%20x%3D%22490%22%20y%3D%22110%22%20width%3D%22120%22%20height%3D%22110%22%20as%3D%22geometry%22%2F%3E%3C%2FmxCell%3E%3C%2Froot%3E%3C%2FmxGraphModel%3E&lt;/span&gt;" style="shape=process;whiteSpace=wrap;html=1;backgroundOutline=1;" vertex="1" parent="WIyWlLk6GJQsqaUBKTNV-1">
          <mxGeometry x="975" y="345" width="120" height="60" as="geometry" />
        </mxCell>
        <mxCell id="_uNYWWRS_P6XX7t4Yp4K-20" style="edgeStyle=orthogonalEdgeStyle;rounded=0;orthogonalLoop=1;jettySize=auto;html=1;entryX=0;entryY=0.5;entryDx=0;entryDy=0;" edge="1" parent="WIyWlLk6GJQsqaUBKTNV-1" source="_uNYWWRS_P6XX7t4Yp4K-12" target="_uNYWWRS_P6XX7t4Yp4K-11">
          <mxGeometry relative="1" as="geometry" />
        </mxCell>
        <mxCell id="_uNYWWRS_P6XX7t4Yp4K-22" style="edgeStyle=orthogonalEdgeStyle;rounded=0;orthogonalLoop=1;jettySize=auto;html=1;entryX=0.5;entryY=0;entryDx=0;entryDy=0;" edge="1" parent="WIyWlLk6GJQsqaUBKTNV-1" source="_uNYWWRS_P6XX7t4Yp4K-12" target="_uNYWWRS_P6XX7t4Yp4K-9">
          <mxGeometry relative="1" as="geometry" />
        </mxCell>
        <mxCell id="_uNYWWRS_P6XX7t4Yp4K-12" value="Состовление партии грузов" style="ellipse;whiteSpace=wrap;html=1;" vertex="1" parent="WIyWlLk6GJQsqaUBKTNV-1">
          <mxGeometry x="745" y="355" width="180" height="40" as="geometry" />
        </mxCell>
        <mxCell id="_uNYWWRS_P6XX7t4Yp4K-28" style="edgeStyle=orthogonalEdgeStyle;rounded=0;orthogonalLoop=1;jettySize=auto;html=1;" edge="1" parent="WIyWlLk6GJQsqaUBKTNV-1" source="_uNYWWRS_P6XX7t4Yp4K-14" target="_uNYWWRS_P6XX7t4Yp4K-15">
          <mxGeometry relative="1" as="geometry" />
        </mxCell>
        <mxCell id="_uNYWWRS_P6XX7t4Yp4K-14" value="Отправка партий грузов на судна" style="ellipse;whiteSpace=wrap;html=1;" vertex="1" parent="WIyWlLk6GJQsqaUBKTNV-1">
          <mxGeometry x="110" y="560" width="180" height="50" as="geometry" />
        </mxCell>
        <mxCell id="_uNYWWRS_P6XX7t4Yp4K-29" style="edgeStyle=orthogonalEdgeStyle;rounded=0;orthogonalLoop=1;jettySize=auto;html=1;" edge="1" parent="WIyWlLk6GJQsqaUBKTNV-1" source="_uNYWWRS_P6XX7t4Yp4K-15" target="_uNYWWRS_P6XX7t4Yp4K-8">
          <mxGeometry relative="1" as="geometry" />
        </mxCell>
        <mxCell id="_uNYWWRS_P6XX7t4Yp4K-15" value="Доставка партии груза" style="ellipse;whiteSpace=wrap;html=1;" vertex="1" parent="WIyWlLk6GJQsqaUBKTNV-1">
          <mxGeometry x="115" y="740" width="170" height="40" as="geometry" />
        </mxCell>
        <mxCell id="_uNYWWRS_P6XX7t4Yp4K-24" style="edgeStyle=orthogonalEdgeStyle;rounded=0;orthogonalLoop=1;jettySize=auto;html=1;entryX=0;entryY=0.5;entryDx=0;entryDy=0;" edge="1" parent="WIyWlLk6GJQsqaUBKTNV-1" source="_uNYWWRS_P6XX7t4Yp4K-16" target="_uNYWWRS_P6XX7t4Yp4K-0">
          <mxGeometry relative="1" as="geometry" />
        </mxCell>
        <mxCell id="_uNYWWRS_P6XX7t4Yp4K-25" style="edgeStyle=orthogonalEdgeStyle;rounded=0;orthogonalLoop=1;jettySize=auto;html=1;entryX=1;entryY=0.5;entryDx=0;entryDy=0;" edge="1" parent="WIyWlLk6GJQsqaUBKTNV-1" source="_uNYWWRS_P6XX7t4Yp4K-16" target="_uNYWWRS_P6XX7t4Yp4K-7">
          <mxGeometry relative="1" as="geometry" />
        </mxCell>
        <mxCell id="_uNYWWRS_P6XX7t4Yp4K-16" value="&lt;div&gt;Составление маршрута&lt;br&gt;&lt;/div&gt;" style="ellipse;whiteSpace=wrap;html=1;" vertex="1" parent="WIyWlLk6GJQsqaUBKTNV-1">
          <mxGeometry x="745" y="565" width="180" height="40" as="geometry" />
        </mxCell>
      </root>
    </mxGraphModel>
  </diagram>
</mxfile>
